<?xml version="1.0" standalone="no"?>
<!DOCTYPE svg PUBLIC "-//W3C//DTD SVG 20010904//EN"
 "http://www.w3.org/TR/2001/REC-SVG-20010904/DTD/svg10.dtd">
<svg version="1.0" xmlns="http://www.w3.org/2000/svg"
 width="945.000000pt" height="225.000000pt" viewBox="0 0 945.000000 225.000000"
 preserveAspectRatio="xMidYMid meet">
<metadata>
Created by potrace 1.16, written by Peter Selinger 2001-2019
</metadata>
<g transform="translate(0.000000,225.000000) scale(0.100000,-0.100000)"
fill="#000000" stroke="none">
<path d="M377 1990 c-79 -28 -122 -57 -185 -124 -94 -99 -142 -238 -142 -411
0 -239 90 -405 263 -486 71 -33 74 -34 207 -34 142 0 150 2 281 73 4 1 12 -11
17 -28 10 -29 14 -30 66 -30 l56 0 0 280 0 280 -220 0 -220 0 0 -50 0 -50 75
0 75 0 0 -150 c0 -201 -14 -230 -116 -230 -40 0 -51 5 -79 34 -47 51 -56 97
-62 332 -10 397 32 514 186 514 106 0 153 -56 166 -196 l7 -72 67 31 c36 16
70 33 75 38 14 12 -32 131 -72 184 -25 34 -57 59 -97 80 -54 28 -68 30 -174
33 -96 2 -126 -1 -174 -18z"/>
<path d="M1070 1471 l0 -521 160 0 160 0 0 251 0 250 48 -6 c106 -15 127 -53
136 -257 4 -84 12 -172 18 -195 l10 -43 169 0 c93 0 169 1 169 3 0 1 -9 25
-19 52 -11 28 -25 98 -31 155 -22 198 -45 246 -138 294 l-44 22 40 12 c53 16
137 93 152 138 7 20 12 64 12 99 -1 106 -53 179 -167 232 l-60 28 -307 3 -308
3 0 -520z m464 390 c54 -31 71 -65 71 -146 0 -59 -4 -79 -21 -102 -30 -40 -70
-60 -136 -68 l-58 -6 0 176 0 176 58 -6 c31 -4 70 -15 86 -24z"/>
<path d="M2236 1908 c-13 -46 -77 -261 -141 -478 -64 -217 -122 -414 -130
-437 l-14 -43 68 0 67 0 12 48 c7 26 22 77 33 115 l20 67 149 0 148 0 11 -32
c5 -18 20 -70 31 -115 l22 -83 159 0 158 0 -14 48 c-8 26 -71 252 -140 502
-69 250 -128 463 -131 473 -5 15 -21 17 -144 17 l-139 0 -25 -82z m129 -410
c30 -114 55 -209 55 -212 0 -3 -54 -6 -121 -6 -93 0 -120 3 -116 13 2 6 31
105 63 219 33 114 60 204 61 200 1 -4 27 -100 58 -214z"/>
<path d="M2900 1470 l0 -520 370 0 370 0 0 50 0 50 -210 0 -210 0 0 470 0 470
-160 0 -160 0 0 -520z"/>
<path d="M3690 1470 l0 -520 160 0 160 0 0 260 0 260 115 0 115 0 0 -260 0
-260 155 0 155 0 0 520 0 520 -155 0 -155 0 0 -210 0 -210 -115 0 -115 0 0
210 0 210 -160 0 -160 0 0 -520z"/>
<path d="M4906 1908 c-13 -46 -77 -261 -141 -478 -64 -217 -122 -414 -130
-437 l-14 -43 68 0 67 0 12 48 c7 26 22 77 33 115 l20 67 149 0 148 0 11 -32
c5 -18 20 -70 31 -115 l22 -83 159 0 158 0 -14 48 c-8 26 -71 252 -140 502
-69 250 -128 463 -131 473 -5 15 -21 17 -144 17 l-139 0 -25 -82z m129 -410
c30 -114 55 -209 55 -212 0 -3 -54 -6 -121 -6 -93 0 -120 3 -116 13 2 6 31
105 63 219 33 114 60 204 61 200 1 -4 27 -100 58 -214z"/>
<path d="M6216 1908 c-13 -46 -77 -261 -141 -478 -64 -217 -122 -414 -130
-437 l-14 -43 68 0 67 0 12 48 c7 26 22 77 33 115 l20 67 149 0 149 0 14 -47
c8 -27 22 -81 32 -120 l19 -73 553 0 553 0 0 55 0 55 -229 2 -229 3 249 423
c225 382 249 427 249 467 l0 45 -390 0 -390 0 0 -50 0 -50 210 -2 210 -3 -241
-410 c-133 -225 -244 -418 -248 -427 -3 -10 -56 162 -126 415 -65 238 -125
453 -133 480 l-14 47 -138 0 -139 0 -25 -82z m129 -410 c30 -114 55 -209 55
-212 0 -3 -54 -6 -121 -6 -93 0 -120 3 -116 13 2 6 31 105 63 219 33 114 60
204 61 200 1 -4 27 -100 58 -214z"/>
<path d="M7712 1593 c4 -433 7 -452 64 -534 31 -45 100 -94 158 -112 25 -7 99
-12 186 -12 127 0 152 3 202 23 67 27 133 87 158 145 33 75 40 163 40 530 l0
357 -54 0 -54 0 -5 -387 c-5 -418 -7 -440 -58 -498 -39 -44 -84 -58 -170 -53
-58 3 -73 8 -97 31 -49 47 -52 72 -52 506 l0 401 -161 0 -160 0 3 -397z"/>
<path d="M8670 1470 l0 -520 370 0 370 0 0 50 0 50 -210 0 -210 0 0 470 0 470
-160 0 -160 0 0 -520z"/>
<path d="M6403 720 c-64 -39 -84 -136 -40 -201 19 -28 36 -39 107 -62 93 -30
130 -60 130 -105 0 -98 -155 -121 -194 -30 -8 18 -17 41 -20 51 -4 11 -16 17
-36 17 -30 0 -31 -1 -25 -32 21 -100 68 -141 165 -146 75 -4 117 16 150 70 27
44 27 122 0 166 -22 35 -54 53 -144 78 -66 18 -96 43 -96 80 0 39 16 61 55 74
58 19 118 -14 130 -71 6 -24 12 -29 37 -29 29 0 30 1 23 37 -8 47 -38 89 -75
108 -42 22 -128 19 -167 -5z"/>
<path d="M7158 711 c-65 -42 -92 -100 -97 -215 -2 -52 2 -106 9 -129 30 -100
99 -157 189 -157 78 0 133 37 177 120 29 54 27 240 -3 295 -60 113 -176 149
-275 86z m166 -47 c71 -46 95 -222 45 -319 -80 -157 -250 -72 -249 125 1 168
100 263 204 194z"/>
<path d="M8738 711 c-65 -42 -92 -100 -97 -215 -2 -52 2 -106 9 -129 30 -100
99 -157 189 -157 78 0 133 37 177 120 29 54 27 240 -3 295 -60 113 -176 149
-275 86z m166 -47 c71 -46 95 -222 45 -319 -80 -157 -250 -72 -249 125 1 168
100 263 204 194z"/>
<path d="M9163 720 c-64 -39 -84 -136 -40 -201 19 -28 36 -39 107 -62 93 -30
130 -60 130 -105 0 -98 -155 -121 -194 -30 -8 18 -17 41 -20 51 -4 11 -16 17
-36 17 -30 0 -31 -1 -25 -32 21 -100 68 -141 165 -146 75 -4 117 16 150 70 27
44 27 122 0 166 -22 35 -54 53 -144 78 -66 18 -96 43 -96 80 0 39 16 61 55 74
58 19 118 -14 130 -71 6 -24 12 -29 37 -29 29 0 30 1 23 37 -8 47 -38 89 -75
108 -42 22 -128 19 -167 -5z"/>
<path d="M5950 475 l0 -255 160 0 160 0 0 30 0 30 -125 0 -125 0 0 85 0 85
115 0 115 0 0 30 0 30 -115 0 -115 0 0 80 0 80 120 0 120 0 0 30 0 30 -155 0
-155 0 0 -255z"/>
<path d="M6700 700 l0 -30 70 0 70 0 0 -225 0 -225 30 0 30 0 0 225 0 225 70
0 70 0 0 30 0 30 -170 0 -170 0 0 -30z"/>
<path d="M7520 475 l0 -255 35 0 35 0 0 115 0 115 95 0 95 0 0 30 0 30 -95 0
-95 0 0 80 0 80 110 0 110 0 0 30 0 30 -145 0 -145 0 0 -255z"/>
<path d="M7887 483 c-43 -137 -77 -252 -77 -256 0 -5 15 -7 32 -5 31 3 34 7
53 73 l21 70 85 3 84 2 23 -75 c22 -75 23 -75 57 -75 19 0 35 3 35 7 0 4 -37
119 -82 255 l-83 248 -36 0 -36 0 -76 -247z"/>
<path d="M8230 474 l0 -256 119 4 c139 4 159 13 201 94 22 43 25 60 25 164 0
104 -2 119 -25 160 -14 24 -40 55 -59 67 -30 21 -46 23 -147 23 l-114 0 0
-256z m241 158 c65 -73 59 -265 -10 -326 -15 -14 -41 -20 -96 -24 l-75 -5 0
198 0 198 77 -5 c70 -5 79 -8 104 -36z"/>
<path d="M0 355 l0 -125 2860 0 2860 0 0 125 0 125 -2860 0 -2860 0 0 -125z"/>
</g>
</svg>
